<?xml version="1.0" encoding="UTF-8" standalone="no"?>
<svg
   width="200"
   height="200"
   viewBox="0 0 200 200"
   version="1.1"
   xmlns="http://www.w3.org/2000/svg">
  <defs>
    <linearGradient id="gradient1" gradientTransform="rotate(45)">
      <stop offset="0%" stop-color="#7fb86c" />
      <stop offset="100%" stop-color="#409e3a" />
    </linearGradient>
  </defs>
  <g>
    <!-- Fundo da árvore (copa) -->
    <circle cx="100" cy="95" r="80" fill="#a0d6a0" />
    
    <!-- Tronco da árvore -->
    <rect x="90" y="160" width="20" height="40" fill="#8b4513" />
    
    <!-- Mãos em árvore -->
    <g transform="translate(100, 95) scale(0.8) translate(-100, -100)">
      <!-- Mão central -->
      <path d="M 100,140 C 80,120 90,100 100,80 L 105,80 C 115,100 120,120 100,140 Z" fill="#5e2605" />
      
      <!-- Mãos pequenas (representando folhas) -->
      <g fill="#2c9930">
        <path d="M 70,90 C 65,85 70,80 75,78 L 78,80 C 82,85 78,90 70,90 Z" />
        <path d="M 130,90 C 135,85 130,80 125,78 L 122,80 C 118,85 122,90 130,90 Z" />
        <path d="M 80,60 C 75,55 80,50 85,48 L 88,50 C 92,55 88,60 80,60 Z" />
        <path d="M 120,60 C 125,55 120,50 115,48 L 112,50 C 108,55 112,60 120,60 Z" />
      </g>
      
      <!-- Mãos coloridas espalhadas -->
      <g>
        <path d="M 60,70 C 55,65 58,60 63,58 L 65,60 C 68,65 65,70 60,70 Z" fill="#e74c3c" />
        <path d="M 140,70 C 145,65 142,60 137,58 L 135,60 C 132,65 135,70 140,70 Z" fill="#3498db" />
        <path d="M 50,100 C 45,95 48,90 53,88 L 55,90 C 58,95 55,100 50,100 Z" fill="#f39c12" />
        <path d="M 150,100 C 155,95 152,90 147,88 L 145,90 C 142,95 145,100 150,100 Z" fill="#9b59b6" />
        <path d="M 70,120 C 65,115 68,110 73,108 L 75,110 C 78,115 75,120 70,120 Z" fill="#2ecc71" />
        <path d="M 130,120 C 135,115 132,110 127,108 L 125,110 C 122,115 125,120 130,120 Z" fill="#e74c3c" />
      </g>
    </g>
    
    <!-- Sinal de Libras no topo -->
    <g transform="translate(100, 25) scale(0.4)">
      <!-- Letras com sinais de mão simplificados -->
      <g fill="white" stroke="black" stroke-width="2">
        <!-- L -->
        <circle cx="-80" cy="0" r="15" />
        <path d="M -85,0 L -75,-10 L -75,10 Z" fill="black" />
        
        <!-- I -->
        <circle cx="-40" cy="0" r="15" />
        <rect x="-43" y="-8" width="6" height="16" fill="black" />
        
        <!-- B -->
        <circle cx="0" cy="0" r="15" />
        <path d="M -5,-5 C 5,-5 5,5 -5,5 Z" fill="black" />
        
        <!-- R -->
        <circle cx="40" cy="0" r="15" />
        <path d="M 35,-5 L 45,-5 L 45,0 L 35,0 L 45,5 Z" fill="black" />
        
        <!-- A -->
        <circle cx="80" cy="0" r="15" />
        <path d="M 75,-5 L 85,-5 L 85,5 L 75,5 Z" fill="black" />
        
        <!-- S -->
        <circle cx="120" cy="0" r="15" />
        <path d="M 115,-5 C 125,-5 125,5 115,5 Z" fill="black" />
      </g>
    </g>
  </g>
</svg>
